<?xml version="1.0" standalone="no"?>
<!DOCTYPE svg PUBLIC "-//W3C//DTD SVG 20010904//EN"
 "http://www.w3.org/TR/2001/REC-SVG-20010904/DTD/svg10.dtd">
<svg version="1.0" xmlns="http://www.w3.org/2000/svg"
 width="228.000000pt" height="238.000000pt" viewBox="0 0 228.000000 238.000000"
 preserveAspectRatio="xMidYMid meet">

<g transform="translate(0.000000,238.000000) scale(0.100000,-0.100000)"
fill="#FFFFFF" stroke="none">
<path d="M737 2350 c-71 -11 -86 -22 -160 -108 -73 -85 -117 -171 -117 -228 0
-47 33 -146 54 -163 8 -7 12 -20 9 -30 -10 -41 56 -130 109 -147 35 -11 88 6
126 40 35 32 129 66 185 66 38 1 105 37 156 85 l49 46 40 -46 c98 -112 142
-246 167 -515 8 -91 18 -177 21 -192 l5 -27 -75 43 c-115 66 -203 91 -311 90
-82 0 -97 -4 -174 -38 -99 -45 -114 -45 -245 13 -50 22 -118 47 -151 56 -81
22 -260 32 -279 16 -18 -16 -70 -171 -90 -271 -56 -282 -43 -671 30 -894 32
-96 62 -146 89 -146 76 0 177 77 325 250 l56 64 72 -27 c99 -36 228 -51 387
-43 408 21 811 132 1055 291 80 52 186 153 200 189 17 46 12 128 -10 161 -11
17 -24 37 -29 45 -6 8 -22 56 -38 105 -86 279 -346 691 -717 1137 -134 163
-173 178 -476 183 -113 2 -231 0 -263 -5z m496 -94 c32 -9 69 -23 82 -32 33
-22 243 -280 373 -457 215 -295 361 -555 427 -760 20 -61 48 -126 61 -144 36
-48 32 -94 -12 -143 -181 -200 -608 -351 -1102 -390 -159 -13 -304 -1 -389 31
-32 12 -80 24 -106 27 -47 4 -49 3 -100 -50 -29 -30 -83 -89 -120 -131 -57
-64 -126 -117 -151 -117 -10 0 -55 164 -71 255 -45 261 -19 635 58 850 l14 40
69 -1 c89 -2 174 -25 288 -77 81 -37 99 -42 166 -42 63 0 84 5 129 28 146 77
302 43 530 -113 91 -62 115 -69 134 -38 9 13 5 28 -15 65 -33 61 -44 116 -58
278 -24 286 -58 405 -155 541 -40 55 -43 64 -26 64 50 0 132 111 111 150 -17
31 -57 26 -75 -9 -8 -17 -31 -42 -50 -57 -19 -14 -35 -32 -35 -39 0 -11 -6
-10 -30 1 -35 18 -59 12 -100 -23 l-30 -25 0 45 c0 62 -31 92 -69 68 -9 -6
-14 -25 -13 -55 2 -43 0 -46 -23 -46 -18 0 -26 7 -31 26 -7 27 2 51 56 140 30
50 30 52 12 74 -28 35 -53 19 -106 -70 -47 -78 -49 -82 -43 -140 6 -66 0 -75
-58 -81 -30 -4 -30 -3 -33 48 -4 61 2 73 80 175 63 82 69 110 25 124 -17 5
-30 -3 -63 -40 -24 -25 -61 -74 -83 -107 -35 -53 -41 -69 -41 -115 0 -56 -15
-73 -26 -28 -10 40 11 93 72 184 41 61 54 89 50 106 -6 21 -2 23 36 27 92 10
383 -2 441 -17z m-643 -146 c-6 -11 -13 -20 -16 -20 -2 0 0 9 6 20 6 11 13 20
16 20 2 0 0 -9 -6 -20z m-35 -85 c-10 -36 -14 -42 -14 -23 -1 24 18 82 25 76
1 -2 -4 -25 -11 -53z m165 -237 c0 -4 -14 -15 -31 -24 -30 -15 -32 -15 -55 7
-31 29 -28 61 6 70 19 4 32 0 53 -19 15 -14 27 -29 27 -34z"/>
<path d="M1527 963 c-47 -47 135 -191 264 -208 41 -6 48 -4 62 16 22 31 6 57
-41 64 -56 9 -137 50 -186 95 -40 37 -82 51 -99 33z"/>
<path d="M420 869 c-15 -17 -52 -75 -81 -128 -71 -130 -102 -174 -133 -190
-35 -19 -43 -49 -18 -73 18 -19 21 -19 50 -4 44 23 104 96 147 179 21 39 55
98 76 129 41 60 47 86 27 106 -19 19 -37 14 -68 -19z"/>
<path d="M1273 826 c-154 -138 -399 -152 -563 -31 -53 39 -85 43 -104 12 -9
-16 -4 -25 36 -62 145 -131 383 -154 581 -54 63 32 147 103 147 125 0 17 -28
44 -46 44 -8 0 -31 -15 -51 -34z"/>
</g>
</svg>
