<?xml version="1.0" standalone="no"?>
<!DOCTYPE svg PUBLIC "-//W3C//DTD SVG 20010904//EN"
 "http://www.w3.org/TR/2001/REC-SVG-20010904/DTD/svg10.dtd">
<svg version="1.0" xmlns="http://www.w3.org/2000/svg"
 width="117.000000pt" height="140.000000pt" viewBox="0 0 117.000000 140.000000"
 preserveAspectRatio="xMidYMid meet">

<g transform="translate(0.000000,140.000000) scale(0.100000,-0.100000)"
fill="#FFFFFF" stroke="none">
<path d="M280 1393 c-29 -10 -40 -37 -40 -100 l0 -63 355 0 355 0 0 65 c0 110
16 105 -347 104 -170 0 -315 -3 -323 -6z"/>
<path d="M240 1101 l0 -39 -96 -4 c-81 -2 -98 -6 -110 -22 -18 -25 -18 -107 0
-132 14 -18 31 -19 561 -19 530 0 547 1 561 19 18 25 18 107 0 132 -12 16 -29
20 -110 22 l-96 4 0 39 0 39 -355 0 -355 0 0 -39z"/>
<path d="M295 818 c-49 -18 -92 -55 -112 -98 -17 -37 -21 -40 -61 -40 -49 0
-97 -21 -112 -49 -5 -11 -10 -42 -10 -70 0 -44 3 -51 20 -51 17 0 20 7 20 49
0 59 22 81 81 81 35 0 37 -2 44 -37 10 -56 41 -100 91 -129 38 -23 53 -26 108
-22 50 3 71 10 100 31 83 64 102 187 39 264 -16 21 -44 46 -60 55 -38 23 -110
31 -148 16z m99 -72 c18 -7 43 -26 55 -42 34 -43 25 -117 -18 -156 -56 -50
-152 -34 -187 33 -30 60 -3 137 59 164 41 18 50 18 91 1z"/>
<path d="M770 806 c0 -8 -13 -17 -29 -21 -36 -8 -81 -48 -81 -72 1 -38 36 -64
120 -89 58 -17 77 -36 55 -54 -17 -14 -83 -16 -133 -5 -25 5 -30 2 -35 -16 -8
-32 -4 -36 53 -43 41 -5 50 -10 50 -26 0 -29 38 -27 42 2 2 17 13 24 43 30 80
17 112 85 59 127 -14 11 -53 28 -86 37 -101 29 -88 68 19 61 54 -4 63 -2 68
14 10 30 -3 39 -51 39 -30 0 -46 5 -50 15 -8 19 -44 20 -44 1z"/>
<path d="M7 454 c-4 -4 -7 -106 -7 -226 0 -212 1 -218 20 -218 20 0 20 5 18
222 -3 209 -8 245 -31 222z"/>
<path d="M472 429 c-13 -5 -49 -30 -80 -55 -59 -49 -163 -104 -195 -104 -10 0
-27 4 -37 10 -22 12 -46 4 -55 -17 -9 -24 50 -79 124 -115 113 -56 229 -37
339 55 24 21 47 37 52 37 4 0 30 -18 58 -40 115 -92 220 -108 333 -52 74 36
133 91 124 115 -9 21 -33 29 -55 17 -10 -6 -27 -10 -37 -10 -32 0 -136 55
-195 104 -84 69 -133 81 -192 51 -27 -14 -34 -14 -68 0 -43 17 -81 18 -116 4z"/>
</g>
</svg>
