<?xml version="1.0" standalone="no"?>
<!DOCTYPE svg PUBLIC "-//W3C//DTD SVG 20010904//EN"
 "http://www.w3.org/TR/2001/REC-SVG-20010904/DTD/svg10.dtd">
<svg version="1.0" xmlns="http://www.w3.org/2000/svg"
 width="287.000000pt" height="287.000000pt" viewBox="0 0 287.000000 287.000000"
 preserveAspectRatio="xMidYMid meet">

<g transform="translate(0.000000,287.000000) scale(0.100000,-0.100000)"
fill="#FFFFFF" stroke="none">
<path d="M1249 2859 c-140 -15 -311 -66 -444 -132 -294 -146 -513 -364 -659
-655 -192 -383 -192 -871 0 -1254 235 -468 688 -768 1201 -794 250 -13 494 36
705 142 288 144 508 364 652 652 192 383 192 871 0 1254 -276 551 -835 853
-1455 787z m434 -160 c360 -73 688 -313 861 -629 l35 -66 -132 -43 c-299 -99
-589 -219 -814 -336 -117 -62 -123 -64 -133 -44 -6 11 -58 158 -116 327 -58
169 -113 327 -121 352 -9 25 -20 51 -26 58 -14 17 -62 15 -78 -4 -17 -20 -7
-57 93 -344 110 -315 158 -456 158 -462 0 -3 -25 -20 -57 -38 -153 -86 -423
-280 -578 -413 -92 -80 -195 -179 -195 -189 0 -4 62 -8 137 -8 l137 0 -27 -28
c-29 -30 -35 -60 -15 -80 23 -23 54 -12 103 39 28 28 70 61 95 74 25 13 90 64
144 114 232 216 522 427 821 596 140 80 419 217 557 274 l97 40 15 -47 c64
-193 79 -455 37 -652 -110 -510 -493 -893 -1002 -1001 -147 -31 -362 -31 -509
0 -510 110 -893 493 -1001 1002 -31 146 -31 362 0 508 117 551 554 950 1117
1021 99 13 281 3 397 -21z"/>
<path d="M1362 2662 c-9 -7 -12 -48 -10 -173 l3 -164 40 0 40 0 3 164 c3 173
1 181 -43 181 -11 0 -26 -4 -33 -8z"/>
<path d="M787 2472 c-33 -36 -8 -92 40 -92 25 0 53 30 53 57 0 46 -62 69 -93
35z"/>
<path d="M1917 2472 c-33 -36 -8 -92 40 -92 25 0 53 30 53 57 0 46 -62 69 -93
35z"/>
<path d="M437 2042 c-33 -36 -8 -92 40 -92 25 0 53 30 53 57 0 46 -62 69 -93
35z"/>
<path d="M2327 2042 c-33 -36 -8 -92 40 -92 25 0 53 30 53 57 0 46 -62 69 -93
35z"/>
<path d="M622 1768 c3 -7 49 -45 104 -85 310 -228 374 -274 388 -279 17 -7
246 134 246 150 -1 6 -69 59 -153 118 l-152 108 -218 0 c-169 0 -218 -3 -215
-12z"/>
<path d="M182 1538 c-15 -15 -15 -61 0 -76 8 -8 59 -12 163 -12 162 0 175 4
175 50 0 46 -13 50 -175 50 -104 0 -155 -4 -163 -12z"/>
<path d="M2283 1543 c-19 -7 -17 -80 3 -87 20 -8 288 -8 308 0 11 4 16 19 16
44 0 25 -5 40 -16 44 -19 7 -293 7 -311 -1z"/>
<path d="M1552 1234 c-57 -42 -101 -81 -99 -87 2 -6 86 -72 188 -147 l184
-135 224 -3 c144 -2 222 0 220 7 -2 5 -43 38 -90 73 -147 107 -361 266 -428
318 -35 28 -71 50 -80 50 -9 0 -62 -34 -119 -76z"/>
<path d="M437 922 c-33 -36 -8 -92 40 -92 25 0 53 30 53 57 0 46 -62 69 -93
35z"/>
<path d="M2337 922 c-33 -36 -8 -92 40 -92 25 0 53 30 53 57 0 46 -62 69 -93
35z"/>
<path d="M1357 564 c-4 -4 -7 -81 -7 -170 0 -156 1 -163 21 -169 11 -4 31 -4
45 -1 l24 7 -2 167 -3 167 -35 3 c-20 2 -39 0 -43 -4z"/>
<path d="M797 492 c-33 -36 -8 -92 40 -92 25 0 53 30 53 57 0 46 -62 69 -93
35z"/>
<path d="M1927 492 c-33 -36 -8 -92 40 -92 25 0 53 30 53 57 0 46 -62 69 -93
35z"/>
</g>
</svg>
