<?xml version="1.0" standalone="no"?>
<!DOCTYPE svg PUBLIC "-//W3C//DTD SVG 20010904//EN"
 "http://www.w3.org/TR/2001/REC-SVG-20010904/DTD/svg10.dtd">
<svg version="1.0" xmlns="http://www.w3.org/2000/svg"
 width="112.000000pt" height="111.000000pt" viewBox="0 0 112.000000 111.000000"
 preserveAspectRatio="xMidYMid meet">

<g transform="translate(0.000000,111.000000) scale(0.100000,-0.100000)"
fill="#FFFFFF" stroke="none">
<path d="M900 1002 c-267 -133 -337 -175 -462 -279 -54 -46 -102 -83 -107 -83
-4 0 -25 14 -46 30 -21 17 -43 29 -49 29 -6 -1 -49 -42 -96 -92 l-85 -91 90
-16 c70 -12 91 -19 93 -33 2 -10 -1 -23 -6 -30 -9 -11 -182 -327 -220 -400 -8
-16 -12 -30 -9 -33 2 -3 109 47 236 111 128 63 236 113 241 110 4 -3 14 -43
21 -90 7 -47 15 -85 18 -85 9 0 181 174 181 183 0 5 -15 27 -34 50 l-34 42 89
95 c121 129 206 250 284 405 56 111 121 273 112 281 -1 1 -99 -46 -217 -104z"/>
</g>
</svg>
